<svg xmlns="http://www.w3.org/2000/svg" width="256" height="256"><path fill="#1976D2" fill-opacity=".173" fill-rule="evenodd" d="M0 128.004v128.004l128.25-.254 128.25-.254.254-127.75L257.008 0H0v128.004m.485.496c0 70.4.119 99.053.265 63.672.146-35.38.146-92.98 0-128C.604 29.153.485 58.1.485 128.5"/><path fill="#1976D2" fill-opacity=".118" fill-rule="evenodd" d="M10.041 8.619c-4.312 3.628-6.351 7.916-5.619 11.816.606 3.233 5.552 8.739 8.911 9.921 2.041.718 1.676 3.325-.396 2.831-6.516-1.551-6.872-1.487-7.995 1.442-.792 2.064-.801 4.378-.032 8.234.587 2.95.856 5.706.597 6.126-.778 1.258-1.63 24.048-.977 26.106.333 1.048 1.362 1.921 2.287 1.941 1.276.027 1.017.581-1.067 2.288L3 81.575v54.213c0 29.816.337 54.211.75 54.209.412-.002 2.279-6.414 4.148-14.25 1.869-7.836 4.661-18.009 6.205-22.608 1.544-4.599 3.089-10.449 3.433-13 .993-7.363 2.444-11.137 4.292-11.161.919-.012 3.515-.859 5.768-1.882 3.893-1.768 4.278-2.357 7.794-11.93 2.035-5.539 4.118-12.679 4.629-15.868.511-3.189 1.424-7.886 2.029-10.437.991-4.188.856-5.116-1.391-9.551-1.369-2.702-3.587-5.413-4.928-6.024-2.881-1.312-3.702-4.971-3.718-16.567-.009-6.185.314-7.907 1.573-8.39 1.103-.423 1.233-.824.428-1.321-.635-.393-1.368-2.468-1.629-4.611a306.14 306.14 0 0 0-.924-6.897c-.248-1.65-.486-4.35-.529-6-.043-1.65-.448-3.9-.899-5s-1.477-4.25-2.279-7c-1.186-4.067-2.103-5.311-4.915-6.668-1.901-.918-4.047-2.38-4.769-3.25-1.896-2.285-4.475-1.952-8.027 1.037M120 10.465c0 1.402 3.75 4.119 4.563 3.306.605-.605-2.556-4.771-3.62-4.771-.519 0-.943.659-.943 1.465m-53.825 8.824c-.665.802-.934 2.302-.598 3.334.425 1.303.33 1.486-.309.599-.69-.958-1.215-.633-2.095 1.297-1.651 3.624-1.47 4.059.827 1.981 1.97-1.783 2-1.747 2 2.467 0 3.93-.142 4.166-1.75 2.905-.962-.754-2.081-1.822-2.485-2.372-.438-.596-.741-.426-.75.421-.008.782-.653 2.132-1.433 3-.78.869-1.907 5.111-2.504 9.427-2.216 16.023 2.559 30.389 14.491 43.596 5.351 5.924 15.906 12.558 24.645 15.492 9.067 3.044 22.354 3.461 32.679 1.027 10.501-2.475 9.982-3.46 10.317 19.581.252 17.332.094 19.879-1.21 19.51-.825-.233-5.224-1.406-9.774-2.605-10.473-2.761-14.62-5.428-15.035-9.669-.402-4.111 2.129-5.778 11.133-7.333 5.575-.962 7.02-1.607 7.892-3.522.841-1.845.695-2.912-.685-5.018-1.68-2.564-2.02-2.651-8.168-2.076-15.041 1.404-23.272 9.854-20.315 20.854 1.76 6.549 7.003 10.945 16.368 13.725l7.738 2.297-1.952 2.147c-7.626 8.385-4.386 19.067 7.298 24.066.649.278.629.717-.058 1.254-2.282 1.782-4.442 5.902-4.442 8.472 0 3.041 4.06 8.421 7.079 9.379 1.88.597 1.822.824-1.044 4.088-1.669 1.901-3.035 3.862-3.035 4.357 0 2.54 2.242 6.183 4.414 7.173l2.453 1.118-2.037 2.755c-2.459 3.326-1.784 6.42 1.812 8.305 2.229 1.167 2.332 1.456.932 2.618-1.959 1.625-2.04 5.453-.155 7.337 1.225 1.225 1.156 1.643-.5 3.062-1.056.903-1.919 2.071-1.919 2.596 0 1.511 4.224 4.066 6.723 4.066 1.863 0 2.277-.545 2.277-3 0-2.973 1.284-3.967 2.527-1.956.355.574.101 1.699-.563 2.5-.691.832-.78 1.456-.209 1.456.55 0 1.603-.727 2.34-1.615 1.152-1.387.977-1.927-1.248-3.84-2.463-2.119-2.498-2.282-.717-3.394 2.252-1.407 2.431-4.874.369-7.153-1.352-1.494-1.255-1.791.983-2.988 3.571-1.911 4.119-4.706 1.592-8.124-1.174-1.587-1.67-2.886-1.104-2.886.567 0 1.93-.9 3.03-2 2.858-2.858 2.595-7.769-.594-11.098-2.526-2.637-2.54-2.725-.544-3.358 3.16-1.003 7.138-6.346 7.138-9.586 0-1.785-1.149-4.197-3.007-6.313l-3.007-3.425 2.43-.61c3.771-.946 8.331-5.313 9.616-9.208 1.572-4.763.497-9.624-2.944-13.308l-2.848-3.048 3.63-.657c15.756-2.852 24.513-12.492 21.247-23.393-2.089-6.973-12.191-12.996-21.799-12.996-4.245 0-7.687 3.204-6.768 6.301.959 3.236 2.881 4.367 8.718 5.132 2.878.378 6.244 1.345 7.482 2.15 3.197 2.079 3.009 6.675-.383 9.343-2.997 2.357-17.108 7.073-21.169 7.075l-2.698.001.321-19.251c.176-10.588.726-19.665 1.221-20.172.547-.56 3.614-.265 7.822.75 10.528 2.541 24.972 2.216 33.379-.751 9.924-3.503 15.42-7.049 23.377-15.084 8.706-8.791 13.98-18.694 15.535-29.17.923-6.218 1.282-7.022 2.948-6.587 1.043.273 1.897-.006 1.897-.62 0-.615-.9-1.117-2-1.117s-2.016-.112-2.035-.25c-1.295-9.282-3.51-17.203-6.503-23.26-2.035-4.12-3.984-7.464-4.331-7.431-.347.032-1.77 2.382-3.161 5.222-3.954 8.07-12.68 13.553-26.888 16.894-7.145 1.681-19.007 7.912-23.612 12.404-8.33 8.127-15.454 25.162-15.485 37.029-.009 3.241-.452 6.567-.985 7.392-1.173 1.816-1.287-5.358-.344-21.721l.646-11.221 4.021-.795c4.369-.864 6.055-3.09 2.955-3.901-1.874-.49-1.862-.647.394-5.103 2.795-5.521 2.86-7.49.424-12.854-3.763-8.286-15.443-11.35-22.055-5.786-6.502 5.471-7.923 13.328-3.571 19.741 2.299 3.388 2.338 3.64.559 3.64-1.051 0-2.191.454-2.534 1.008-.343.555-2.431-1.278-4.641-4.073-5.371-6.795-10.958-10.144-24.242-14.531-11.742-3.878-21.879-8.435-24.97-11.226-1.023-.923-3.074-4.078-4.558-7.012-2.25-4.447-2.901-5.092-3.909-3.877m60.862.211c-.015.55 1.08 2.35 2.432 4 1.352 1.65 2.475 2.463 2.495 1.806.02-.657-1.075-2.457-2.432-4-1.358-1.543-2.481-2.356-2.495-1.806M219 27.424c0 1.299.704 2.632 1.563 2.962.86.33 1.279 1.06.931 1.623-.348.563-1.051.765-1.563.448-.512-.316-.931-.098-.931.484S220.314 34 221.92 34h2.919l-1.549-3.943c-1.831-4.662-4.29-6.171-4.29-2.633M5 27.559c0 .857.457 1.276 1.016.931.559-.346.758-1.047.441-1.559C5.6 25.544 5 25.802 5 27.559M212.5 30c-.34.55-.141 1 .441 1S214 30.55 214 30s-.198-1-.441-1-.719.45-1.059 1M74.36 32.665c.359.64.111 1.345-.551 1.565-.926.309-.938 1.196-.056 3.836.891 2.664 1.11 2.874.979.934-.094-1.375.204-3.102.662-3.837.497-.799.325-1.806-.428-2.5-.957-.884-1.103-.884-.606.002M168.5 33c-.34.55-.141 1 .441 1S170 33.55 170 33s-.198-1-.441-1-.719.45-1.059 1M59.956 34.553c-.903 1.089-.961 1.842-.201 2.602C61.037 38.437 63 37.435 63 35.5c0-2.137-1.635-2.645-3.044-.947m149.748 3.197c.917 5.94 1.993 5.895 2.97-.126.517-3.187.338-3.624-1.48-3.624-1.826 0-2.001.439-1.49 3.75m-12.824 1.461c-6.552 2.636-7.546 3.351-7.087 5.104.523 2.001.547 1.998 1.338-.139.771-2.086 3.869-3.121 3.869-1.293 0 1.079 4.871 2.104 6.687 1.407.722-.277 1.313-1.716 1.313-3.197s.54-3.233 1.2-3.893c1.565-1.565 1.57-1.566-7.32 2.011M177 39c0 .55.648 1 1.441 1s1.719-.45 2.059-1c.34-.55-.309-1-1.441-1-1.132 0-2.059.45-2.059 1m-35.5 2.161c-7.539 4.146-7.213 13.351.618 17.4 2.748 1.421 3.301 1.4 6.689-.256 4.608-2.252 7.659-7.905 6.678-12.372-.371-1.692-.918-2.834-1.214-2.537-.296.296-1.664-.347-3.04-1.429-2.762-2.172-6.659-2.495-9.731-.806m82.741.825c-1.5 2.402-1.591 3.348-.241 2.514.55-.34 1-.141 1 .441S225.45 46 226 46s1-1.35 1-3c0-3.474-.995-3.839-2.759-1.014m-131.29.455c.657.792 1.917 1.163 2.799.825 1.383-.531 1.338-.72-.323-1.371-3.019-1.182-3.773-1.016-2.476.546m-7.792 2.163c.452 2.372 4.841 3.247 4.841.966 0-.864-.413-1.57-.918-1.57-.505 0-1.676-.291-2.602-.646-1.268-.487-1.594-.179-1.321 1.25m17.222.945c.34.888.619 1.74.619 1.894 0 .154 1.136.062 2.525-.203 2.31-.442 2.504-.21 2.282 2.715-.134 1.758-.665 3.457-1.18 3.776-.515.318-.618.064-.23-.565.444-.717.177-.94-.716-.597-.783.3-2.069-.1-2.859-.89-1.224-1.223-1.713-1.232-3.32-.057-1.759 1.287-1.689 1.38 1.057 1.413 2.773.034 9.083 2.766 6.941 3.006-2.417.271-4.721.846-5.165 1.291-.656.655 2.189 6.028 3.977 7.512 1.799 1.493 2.621-1.006 2.745-8.344.046-2.75.414-5.842.819-6.871.674-1.714.881-1.649 2.475.783.956 1.46 2.364 2.527 3.128 2.372 1.678-.343 1.866.152.959 2.517-.452 1.177.046 2.585 1.435 4.064 1.17 1.245 2.127 2.719 2.127 3.275 0 1.177 4.809 5.904 5.372 5.281 1.395-1.546 1.424-4.789.059-6.473-.869-1.072-1.251-1.316-.851-.543.484.931.335 1.16-.442.68-.644-.398-.909-1.146-.589-1.664 1.547-2.504-7.984-10.545-16.458-13.885-4.578-1.804-5.242-1.873-4.71-.487m79.286-.882c-1.622 1.621-.6 4.333 1.633 4.333 2.545 0 4.7-1.697 4.7-3.7 0-1.344-5.111-1.855-6.333-.633M97.25 45.703c-1.541.572-1.648 3.933-.154 4.856.603.373 1.824-.051 2.714-.941 1.419-1.419 1.438-1.788.154-2.998-.805-.759-2.026-1.172-2.714-.917m76.061 2.372c-2.305 1.141-4.721 2.714-5.37 3.496s.889.266 3.417-1.148c2.528-1.413 5.115-2.249 5.748-1.858.818.506.719.954-.344 1.548-1.831 1.025-1.155 5.799.934 6.601.787.302 2.636 0 4.108-.67 2.586-1.179 2.611-1.267.745-2.632-1.885-1.378-1.88-1.412.204-1.412 1.175 0 3.398-1.169 4.941-2.598l2.806-2.597-2.885 2.097C186.028 50.056 183.736 51 182.52 51c-2.363 0-5.969-3.217-4.856-4.331 1.116-1.115.036-.767-4.353 1.406m-68.852.992c-.363.586-.419 1.306-.126 1.6.717.716 2.667-.546 2.667-1.726 0-1.278-1.726-1.193-2.541.126m91.657 1.85c.076 1.694.273 1.981.573.833.252-.962.875-1.75 1.384-1.75.51 0 .927-.375.927-.833 0-.459-.675-.834-1.5-.834-.976 0-1.459.902-1.384 2.584m-185.959-.526c-2.187 1.193-2.232 1.391-.679 2.944 2.386 2.387 7.192 2.151 8.568-.421.614-1.147.856-2.345.539-2.662-1.18-1.181-6.162-1.098-8.428.139M196.158 56c0 1.375.227 1.938.504 1.25.278-.687.278-1.812 0-2.5-.277-.687-.504-.125-.504 1.25M6.813 55.683c.721.289 1.584.253 1.916-.079.332-.332-.258-.568-1.312-.525-1.165.048-1.402.285-.604.604m153.546 4.832c-2.014 3.033-3.41 5.767-3.102 6.075.308.309.836-.309 1.174-1.372.459-1.446 1.299-1.826 3.341-1.51 2.569.399 2.62.336.868-1.083-1.805-1.462-1.796-1.597.318-4.566 1.198-1.682 1.927-3.059 1.62-3.059-.307 0-2.205 2.482-4.219 5.515m5.391-2.758c-.963.214-1.75.807-1.75 1.316 0 1.278 2.732 1.17 3.541-.14.843-1.364.391-1.661-1.791-1.176m-17.204 3.477c-1.056.591-4.847.795-8.94.481-4.263-.327-6.106-.219-4.606.27 4.742 1.547 20.966.438 16.94-1.158-.859-.34-2.386-.157-3.394.407m73.142.412c-1.374 1.374-.662 3.496 1.062 3.164.963-.186 1.75-.969 1.75-1.74 0-1.579-1.764-2.472-2.812-1.424m-90.959 5.446c2.676 5.592 4.921 14.84 5.864 24.158.376 3.713 1.14 6.75 1.698 6.75.664 0 .791-3.882.366-11.25-.356-6.187-.65-13.778-.652-16.867L138 64.265l-4.763-.942-4.762-.941 2.254 4.71m46.35-3.509c.048 1.165.285 1.402.604.605.289-.722.253-1.585-.079-1.917-.332-.332-.568.258-.525 1.312M127 65.941c0 .518.445 1.216.989 1.552.566.35.734-.051.393-.941-.665-1.732-1.382-2.049-1.382-.611m-66 .599c0 .904 4.009 8.46 4.489 8.46.246 0 .211-.617-.078-1.371-.686-1.787 2.042-2.793 5.418-1.999 1.469.345.038-.78-3.181-2.501C61.542 65.864 61 65.653 61 66.54m160.638 1.96c.317.825.705 1.5.862 1.5.157 0 .545-.675.862-1.5.347-.905.005-1.5-.862-1.5s-1.209.595-.862 1.5M219 72.108c0 1.453 1.789 1.884 2.3.553.28-.73-.123-1.328-.895-1.328-.773 0-1.405.349-1.405.775m-65.382 2.445c-.303.791.21 1.043 1.457.717 2.256-.59 2.581-1.937.468-1.937-.801 0-1.668.549-1.925 1.22M131.573 78.5c.335 2.2 1.011 4.675 1.501 5.5 1.092 1.837.031-4.561-1.243-7.5-.576-1.329-.663-.657-.258 2m23.612 1.184c-2.421.968-3.42 5.399-1.657 7.347 2.141 2.366 5.197 1.402 7.075-2.23 2.253-4.357-.595-7.046-5.418-5.117m11.224.692c-.847 2.208.28 3.335 1.808 1.807.902-.902.905-1.461.016-2.35-.89-.89-1.324-.761-1.824.543m20.091 23.389c-1.24.911-1.772 3.235-.741 3.235.418 0 1.322-.9 2.009-2 1.249-2 .615-2.618-1.268-1.235M44 130.583c0 .871.534 1.406 1.188 1.188 1.854-.618 2.161-2.771.395-2.771-.871 0-1.583.713-1.583 1.583m35.457 9.917c.384 2.2 1.149 4.45 1.699 5 .666.667.767-.333.301-3-.385-2.2-1.15-4.45-1.7-5-.666-.667-.767.333-.3 3M94 147c.825.533 1.95.969 2.5.969s.325-.436-.5-.969c-.825-.533-1.95-.969-2.5-.969s-.325.436.5.969m4 2.43c0 1.065 3.46 4.57 4.511 4.57.586 0 2.831.9 4.989 2 4.397 2.241 12.022 2.689 12.765.75.325-.845-.693-1.293-3.143-1.384-7.165-.264-10.945-1.103-13.759-3.054C99.319 149.509 98 148.8 98 149.43m36.402 4.475c-4.208 1.911-5.402 3.573-5.402 7.522 0 2.733 2.312 4.97 7.287 7.048l3.713 1.552v-9.014c0-4.957-.338-9.003-.75-8.991-.412.012-2.594.859-4.848 1.883m11.598 7v9.122l3.713-1.552c5.755-2.404 7.428-4.369 7.086-8.325-.326-3.76-3.264-6.576-8.049-7.713l-2.75-.654v9.122m-101.847 1.126c-.021 2.766.597 7.144 1.375 9.729.901 2.992 1.067 5.045.457 5.655-.61.61-.383 1.593.627 2.708 2.164 2.392.949 3.877-3.171 3.877-3.999 0-4.504 1.558-1.02 3.146 2.011.916 2.953.724 5.563-1.135 1.788-1.273 2.919-2.822 2.623-3.592-.286-.745-.089-1.621.437-1.946.526-.325.956-.099.956.503 0 .773.634.755 2.16-.062 1.937-1.036 1.988-1.252.492-2.089-.917-.513-2.227-.612-2.91-.219-.683.393-.941.379-.573-.031.368-.411-.307-1.865-1.5-3.232-2.973-3.406-4.736-10.621-3.581-14.649 1.136-3.963 1.172-3.694-.492-3.694-1.014 0-1.415 1.397-1.443 5.031M84.158 161c0 1.375.227 1.938.504 1.25.278-.687.278-1.812 0-2.5-.277-.687-.504-.125-.504 1.25m.978 5.25c-.075.963-.544 1.75-1.042 1.75-.499 0-.658.951-.354 2.114.486 1.858.664 1.915 1.472.471.506-.903.726-2.642.49-3.864-.291-1.505-.474-1.657-.566-.471m51.463 13.905c-2.24 1.931-2.762 3.055-2.288 4.924.585 2.303 4.373 5.57 5.34 4.604.25-.251.319-3.06.152-6.243l-.303-5.788-2.901 2.503m9.401 4.354v6.627l3-2.136c4.498-3.203 3.82-7.238-1.75-10.407-.946-.538-1.25.902-1.25 5.916M61.5 181c-.34.55.11 1 1 1s1.34-.45 1-1c-.34-.55-.79-1-1-1-.21 0-.66.45-1 1m23.5 7.786c0 3.358 1.625 4.355 2.668 1.636.333-.867-.131-2.314-1.031-3.214-1.516-1.515-1.637-1.399-1.637 1.578m-9 11.797c0 3.133 2.348 2.79 2.82-.411.212-1.443-.208-2.172-1.25-2.172-1.021 0-1.57.903-1.57 2.583M145 203c0 5.596.661 6.054 3.847 2.662l2.196-2.337-2.094-2.663C145.919 196.81 145 197.354 145 203m-7.96-2.548c-1.658 1.998-.973 4.522 1.709 6.3 2.161 1.432 2.244 1.378 2.119-1.381-.28-6.225-1.473-7.757-3.828-4.919m-125.492 1.137c-1.88 1.374-1.826 1.525.63 1.786 1.485.158 2.962 5.42 1.734 6.179-.501.31-.912.178-.912-.294 0-.471-1.799-.836-3.997-.809l-3.997.049-.003 5.168c-.002 2.843-.265 5.993-.585 7-.516 1.627-.399 1.608 1.047-.168.99-1.215 1.513-3.363 1.332-5.475-.233-2.725.103-3.555 1.559-3.844 1.021-.203 2.371.148 3 .779.859.862.546 1.6-1.257 2.962-1.655 1.251-2.233 2.457-1.861 3.882.352 1.344-.023 2.283-1.07 2.685-1.396.536-1.415.743-.14 1.549 1.235.782 1.191.934-.278.947-2.01.017-2.488 4.441-.605 5.605.784.484.993-.087.664-1.809-.449-2.351-.226-2.509 3.401-2.414 2.135.056 4.199-.409 4.586-1.034.387-.624 2.422-1.135 4.521-1.134 2.099.001 4.031-.213 4.292-.475.262-.262-1.568-4.449-4.066-9.304-2.499-4.856-4.543-9.61-4.543-10.565 0-2.46-1.212-2.904-3.452-1.266m55.998-.359c-1.625.59-3.848 1.905-4.939 2.921-1.091 1.017-2.601 1.849-3.355 1.849-.753 0-1.092.45-.752 1 .917 1.484-.239 1.217-3.238-.748l-2.668-1.748 1.953 3.359c1.074 1.848 2.516 3.583 3.203 3.855.688.273 1.25 1.123 1.25 1.889 0 1.948 2.053 1.698 5-.607 1.375-1.076 3.085-1.966 3.8-1.978.714-.012 2.672-.732 4.351-1.6l3.051-1.578-2.101-2.236C70.616 202.962 70.455 202 72.5 202c.825 0 1.5-.45 1.5-1 0-1.256-2.619-1.162-6.454.23m12.616 6.324c-1.584.825-1.957 1.455-1.154 1.951.651.402 1.901.014 2.778-.863 2.092-2.091 1.308-2.616-1.624-1.088m-31.978 1.174c-2.605.321-3.082.69-2.224 1.723.821.99.656 1.482-.665 1.989-.966.371-1.915.199-2.109-.383C42.381 209.644 40 211.096 40 214c0 2.333.444 3 2 3 1.111 0 2 .667 2 1.5 0 1.873.154 1.869 6.695-.193 4.167-1.314 5.22-2.042 4.696-3.25-.37-.856-.886-2.795-1.146-4.307-.26-1.512-.983-2.678-1.608-2.59-.626.088-2.629.344-4.453.568M8 213c0 .55.675 1 1.5 1s1.5-.45 1.5-1-.675-1-1.5-1-1.5.45-1.5 1m130.614 1.529c-1.693 1.693-1.231 4.02.963 4.862 1.062.408 1.423-.334 1.423-2.922 0-3.91-.23-4.096-2.386-1.94m6.386 1.94c0 2.588.361 3.33 1.423 2.922 2.194-.842 2.656-3.169.963-4.862-2.156-2.156-2.386-1.97-2.386 1.94m-134 2.508c0 .434.9 1.025 2 1.313 1.1.287 2 .167 2-.267 0-.434-.9-1.025-2-1.313-1.1-.287-2-.167-2 .267m128.548 7.273c-.419.963-.419 2.537 0 3.5.725 1.667.781 1.667 1.18 0 .23-.963.23-2.537 0-3.5-.399-1.667-.455-1.667-1.18 0M145 228c0 1.824.415 2.862 1 2.5.55-.34 1-1.465 1-2.5s-.45-2.16-1-2.5c-.585-.362-1 .676-1 2.5m-5.908 7.377c-1.054 1.279-1.121 1.994-.266 2.849 1.513 1.513 2.414.478 2.005-2.305-.306-2.084-.435-2.124-1.739-.544m-126.329 3.194c-.279.279.335 2.16 1.365 4.179 1.029 2.02 1.872 4.285 1.872 5.033 0 .748.675 2.035 1.5 2.86.825.825 1.5 1.058 1.5.518 0-1.641-5.694-13.134-6.237-12.59"/><path fill="#1976D2" fill-opacity=".36" fill-rule="evenodd" d="M11.452 8.406C8.086 9.872 5.684 13.01 4.619 17.33c-.602 2.444-.445 2.75 1.149 2.244 1.293-.411 2.504.302 4.039 2.379C11.013 23.584 12 25.367 12 25.914c0 .547 1.18 2.175 2.623 3.618 2.944 2.944 2.537 3.696-2.955 5.452-3.463 1.107-3.769 1.479-3.171 3.861.364 1.449 1.141 2.932 1.728 3.294.587.363.779 1.409.427 2.325-.517 1.349-.211 1.54 1.604 1 1.234-.366 2.867-1.408 3.629-2.315 1.259-1.5 1.323-1.475.711.283-.482 1.384.061 2.518 1.916 4 3.553 2.838 4.658 8.333 2.882 14.332-1.134 3.831-2.938 6.169-9.44 12.236l-8.039 7.5.036 53c.02 29.15.07 53.225.11 53.5.164 1.125 5.889-22.655 5.898-24.5.009-1.655-.157-1.741-.959-.5-.788 1.219-.972 1.09-.985-.691-.017-2.425 1.59-3.994 2.204-2.151.615 1.844 5.836-14.473 6.79-21.219 1.07-7.576 2.93-10.511 7.184-11.339 1.819-.354 4.275-1.421 5.457-2.372 2.253-1.811 9.317-20.12 9.392-24.344.024-1.311.619-4.854 1.323-7.873.865-3.706.979-6.466.35-8.5-1.804-5.836-4.239-10.021-6.375-10.959-2.662-1.169-3.515-6.715-3.242-21.09.104-5.479-.354-12.825-1.018-16.323-.665-3.499-.969-6.987-.676-7.75.888-2.314-.387-4.206-2.469-3.662-2.382.623-2.455-.064-.242-2.277 1.59-1.59 1.575-1.912-.25-5.321-1.069-1.996-3.357-4.336-5.085-5.199-1.728-.864-3.897-2.326-4.821-3.25-.924-.924-1.76-1.662-1.858-1.641-.099.022-1.55.637-3.227 1.367M67.195 33.5c.02 1.65.244 2.204.498 1.231.254-.973.237-2.323-.037-3-.274-.677-.481.119-.461 1.769m-4.887-.858c2.674.779 1.755 4.62-1.308 5.467-2.206.61-2.25.703-.372.791 4.287.201 6.082-6.148 1.861-6.581-1.67-.171-1.699-.12-.181.323m73.676 2.221c-13.19 7.053-7.194 28.418 7.516 26.777 4.551-.508 11.688-2.383 9.661-2.538-.883-.067-.458-1.148 1.25-3.179 3.708-4.407 3.694-12.457-.03-16.882-5.147-6.117-11.902-7.651-18.397-4.178m81.095.72c.048 1.165.285 1.402.604.605.289-.722.253-1.585-.079-1.917-.332-.332-.568.258-.525 1.312m-81.304.976c-1.499.813-3.241 2.483-3.872 3.71-.947 1.841-.916 2.012.175.981 2.38-2.25 3.072-1.312 1.275 1.73-1.226 2.075-1.997 2.606-2.541 1.75-.444-.7-.788.654-.797 3.138-.013 3.75.534 4.916 3.867 8.25 3.471 3.471 4.411 3.882 8.865 3.882 5.578 0 9.277-2.211 11.773-7.039 2.915-5.637.756-12.769-5.01-16.546-2.377-1.558-2.966-1.569-7.298-.146l-6.712 2.203c-1.1.36-.762-.063.75-.94 1.512-.878 2.75-1.807 2.75-2.064 0-.636-.113-.598-3.225 1.091M12.543 37.931c-.951 1.539 1.273 2.238 3.436 1.08C17.091 38.416 18 37.72 18 37.465c0-.881-4.883-.464-5.457.466m55.533 1.109c-.092 3.061 2.555 13.562 3.991 15.834 1.595 2.522.535-4.186-1.876-11.874-1.263-4.027-2.067-5.534-2.115-3.96m112.294 4.103c-3.934 2.014-4.053 2.207-2.5 4.061.897 1.071 2.53 2.393 3.63 2.938 1.457.723 1.347.466-.406-.947-2.858-2.304-2.308-4.783 1.372-6.182 5.151-1.958 7.758 2.316 3.311 5.43-1.222.856-1.742 1.557-1.154 1.557 2.243 0 4.626-3.871 3.976-6.46-.78-3.11-2.746-3.205-8.229-.397m35.051.316c-.34 1.352-1.244 2.979-2.009 3.614-.792.658-1.159 2.087-.851 3.315.298 1.187.097 3.273-.446 4.636-.85 2.13-.997 1.757-1.052-2.667-.047-3.839-.486-5.305-1.73-5.783-2.438-.935-3.406.555-3.842 5.914-.246 3.015-1.091 5.422-2.298 6.546-1.049.979-2.404 3.733-3.01 6.122-.61 2.406-2.012 4.905-3.142 5.602-1.949 1.202-2.049 1.023-2.209-4-.161-5.034-.191-5.087-.701-1.258-.532 3.99-.534 3.987-1.082-1.5l-.549-5.5-2.098 2.098c-1.154 1.154-2.387 3.908-2.741 6.12-.354 2.212-1.322 4.586-2.152 5.275-.83.688-1.509 1.872-1.509 2.629 0 .758-.675 1.378-1.5 1.378s-1.5.453-1.5 1.007c0 .553-1.115 1.976-2.478 3.161-1.811 1.574-2.321 2.786-1.892 4.494.351 1.397.141 2.338-.522 2.338-.609 0-.996.506-.858 1.125.137.619-.279 1.32-.925 1.558-.854.315-.789-1.014.238-4.875.777-2.919 1.359-7.333 1.293-9.808l-.119-4.5L175 74c-.628 2.985-.764 2.544-.924-3l-.188-6.5-1.711 4.212c-.941 2.317-3.219 5.768-5.062 7.669l-3.35 3.457-2.297-2.669c-2.116-2.459-2.547-2.575-5.478-1.47-3.148 1.187-3.174 1.171-2.52-1.5.969-3.956 5.834-13.421 9.098-17.699 1.56-2.046 5.102-5.245 7.871-7.11 5.688-3.83 5.518-4.65-.214-1.032C158.527 55.742 149 75.987 149 93.458c0 2.498-.47 4.542-1.045 4.542-.697 0-.946-5.814-.75-17.501.272-16.114.156-17.501-1.455-17.5-1.638.001-1.75 2.576-1.75 40.06 0 26.451.34 39.849 1 39.441.55-.34 1.002-4.079 1.004-8.309.002-4.23.299-13.479.66-20.553l.656-12.862 4.09.58c2.249.318 6.115 1.024 8.59 1.568 6.079 1.336 16.744 1.319 23.201-.037 11.411-2.396 24.982-10.722 32.414-19.887 1.561-1.925-.314-.575-4.168 3-6.601 6.124-13.923 10.856-19.341 12.5l-2.395.726 2.134-2.29c2.622-2.815 2.237-3.386-1.22-1.811-2.763 1.259-4.284.751-3.166-1.058.362-.587 1.87-1.121 3.35-1.186 1.48-.066-.208-.693-3.751-1.395-3.544-.702-7.144-1.04-8-.753-.857.288 2.466-1.897 7.384-4.855 4.919-2.958 11.219-7.641 14-10.406 7.194-7.151 14.011-20.413 16.032-31.185.714-3.808-.137-4.477-1.053-.828M97.25 43.031c-2.948 1.185-2.839 1.556.441 1.508 2.032-.029 2.865.574 3.4 2.461.597 2.101.726 2.173.809.45.055-1.128-.462-2.641-1.15-3.362-1.022-1.074-.794-1.176 1.25-.563 4.923 1.476 5.456 1.484 2.5.035-3.474-1.702-4.2-1.755-7.25-.529m-31.326 4.338c2.707 2.938 3.241 3.225 2.525 1.359-.268-.699-1.491-1.883-2.718-2.631-2.128-1.297-2.119-1.238.193 1.272m46.707.593c12.192 6.993 20.157 22.146 21.986 41.831.594 6.383.476 7.207-1.032 7.207-.937 0-1.435-.434-1.107-.964.328-.531-1.671-4.081-4.441-7.89-2.77-3.809-5.037-7.262-5.037-7.674 0-.412-2.414-3.724-5.364-7.361-2.949-3.636-5.614-7.286-5.921-8.111-.306-.825-.663 1.2-.793 4.5l-.236 6-.686-5-.686-5-.132 6c-.117 5.25.418 9.051 2.388 17 .273 1.1-.843-.736-2.479-4.079-1.635-3.343-3.675-6.661-4.532-7.372-.858-.712-1.559-1.933-1.559-2.714 0-.781-1.912-3.981-4.25-7.111-2.338-3.129-4.778-7.047-5.424-8.707-1.122-2.885-1.185-2.754-1.418 2.983l-.244 6-.716-5.5c-.547-4.2-.634-3.372-.367 3.5.191 4.95.66 10.083 1.041 11.406.489 1.699.352 2.196-.464 1.691-.637-.393-1.158-1.532-1.158-2.53 0-1.926-4.557-10.675-6.037-11.59-.481-.297-.642-1.149-.357-1.892.285-.743-.256-3.092-1.203-5.218-.947-2.127-1.802-4.092-1.899-4.367a168.71 168.71 0 0 0-.84-2.25 70.51 70.51 0 0 1-1.133-3.25C77.937 45.597 76 45.534 76 47.417c0 .779-.446 1.566-.99 1.75-.545.183-1.09 2.629-1.211 5.436-.185 4.272.342 6.039 3.24 10.851 5.096 8.462 13.979 16.242 25.167 22.041 5.3 2.748 9.485 5.148 9.299 5.333-.508.508-13.814-6.325-19.913-10.226-2.95-1.887-5.752-3.091-6.228-2.677-.475.415-2.439 1.351-4.364 2.079-1.925.729-4.335 2.039-5.355 2.911-1.738 1.484-2.143 1.267-6.369-3.415-3.583-3.969-3.89-4.17-1.489-.975 4.219 5.615 11.898 12.62 17.308 15.79 11.711 6.864 27.841 9.283 41.905 6.285 12.301-2.622 12-2.753 12 5.242 0 3.763.298 13.052.662 20.642l.662 13.799-3.888-.729c-7.979-1.497-19.222-5.627-21.786-8.002-5.278-4.892-2.806-9.065 6.94-11.712 6.341-1.723 6.499-1.827 1.923-1.262-2.743.339-6.322 1.306-7.954 2.15-3.677 1.902-10.559 2.372-10.559.722 0-2.068 4.057-6.43 7.84-8.428 2.013-1.064 3.21-1.946 2.66-1.961-.55-.016-2.753.977-4.896 2.205-6.983 4.004-9.553 12.825-5.948 20.422 2.552 5.378 6.98 7.764 22.117 11.917.879.242.621 1.001-.838 2.46-7.304 7.304-5.398 18.023 4.034 22.69l3.989 1.973-2.094 1.886c-4.96 4.468-4.293 11.577 1.458 15.545 1.748 1.206 3.318 2.291 3.489 2.411.17.12-.842 1.37-2.25 2.778-4.153 4.153-3.226 9.502 2.169 12.521 1.497.838 1.489 1.055-.104 2.648-2.635 2.634-1.685 6.56 2.124 8.776l3.25 1.891v-5.592c0-6.785 1.929-7.532 2.175-.842l.174 4.75.383-4.25c.409-4.539 1.235-5.2 3.335-2.669 1.058 1.275 1.07 1.97.061 3.585-1.09 1.746-1.017 1.96.56 1.659 2.696-.514 2.845-4.628.267-7.372-1.608-1.713-2.922-2.209-4.832-1.825l-2.623.526.332-7.077c.411-8.748 2.1-9.34 2.357-.827l.189 6.25.361-5.75c.198-3.162.688-5.75 1.088-5.75 1.586 0 5.173 3.201 5.173 4.616 0 .826.412 1.248.915.937.503-.311 1.142 0 1.421.691.278.691.542-.026.585-1.593.054-1.936-.874-3.738-2.894-5.626-2.752-2.57-3.322-2.712-7.666-1.9-4.892.914-7.031.54-3.436-.601 1.884-.598 2.075-1.435 2.075-9.091 0-10.731 1.926-11.329 2.199-.683l.198 7.75.346-7.25c.189-3.988.572-7.25.85-7.25.279 0 1.802.67 3.386 1.489 4.083 2.111 4.757 5.086 1.865 8.232-2.285 2.486-2.289 2.522-.155 1.412 1.438-.747 2.402-.794 2.809-.136 1.107 1.792 2.284 1.067 3.382-2.082 1.288-3.694-.453-8.802-3.798-11.145-1.865-1.306-2.888-1.316-8.247-.078-3.365.777-7.292 1.27-8.727 1.094-2.465-.303-2.374-.444 1.642-2.573l4.25-2.254V161.48c0-6.32.397-10.48 1-10.48.6 0 1 4 1 10s.4 10 1 10 1-4 1-10c0-5.5.338-9.993.75-9.984 2.107.047 8.883 4.86 10.22 7.261 1.398 2.51 1.372 3.024-.308 5.97-1.809 3.171-1.808 3.195.078 1.488 2.2-1.991 5.26-2.305 5.26-.54 0 .658-1.238 2.516-2.75 4.13-2.428 2.591-2.488 2.799-.51 1.775 3.168-1.64 5.26-6.239 5.26-11.565 0-3.786-.573-5.19-3.361-8.231l-3.36-3.668-8.64 1.286-8.639 1.285v9.897c0 5.443-.243 9.896-.54 9.896-1.293 0-8.211-3.996-9.402-5.43-2.313-2.787-1.566-6.783 1.793-9.586l3.1-2.589-3.725-.108c-2.049-.06-4.288.357-4.976.925-.87.719-1.25.694-1.25-.083 0-1.786 7.588-6.786 12.496-8.236l4.504-1.33v-40.281c0-37.697-.112-40.282-1.75-40.283-1.613-.001-1.724 1.372-1.417 17.5.217 11.461-.02 17.501-.689 17.501-.562 0-1.295-2.138-1.629-4.75-1.621-12.668-2.887-18.302-5.527-24.594l-2.873-6.844 2.693.65 2.692.65-2.252-1.614c-1.238-.888-2.63-1.38-3.093-1.094-.462.286-2.307-1.437-4.099-3.829-3.459-4.616-6.559-7.233-11.756-9.92-5.37-2.777-5.128-1.824.331 1.307m-18.495-.412c-.16 2.418 1.632 4.478 3.814 4.382 1.043-.045.832-.414-.647-1.129-1.209-.584-2.385-2.016-2.614-3.182-.404-2.057-.421-2.059-.553-.071m123.483-.026c-.89.89-1.619 2.137-1.619 2.77s.988.163 2.194-1.044c1.207-1.207 1.936-2.453 1.619-2.77-.316-.316-1.303.153-2.194 1.044M209.158 52c0 1.375.227 1.938.504 1.25.278-.687.278-1.812 0-2.5-.277-.687-.504-.125-.504 1.25M66.75 57.367c-1.513 1.707-2.75 3.65-2.75 4.318 0 .669-.758 1.64-1.684 2.158-1.38.773-.614 1.478 4.25 3.913 3.264 1.633 7.606 3.274 9.65 3.646l3.715.676-4.465-7.243c-2.457-3.984-4.466-7.8-4.466-8.48 0-2.415-1.537-2.05-4.25 1.012m146.803.465c-.32 1.008-2.15 4.438-4.067 7.622-1.917 3.183-3.486 5.901-3.486 6.038 0 .908 9.89-1.864 13.113-3.676 3.109-1.747 3.614-2.389 2.41-3.063-2.392-1.339-1.833-3.753.87-3.753 2.705 0 4.019 2.188 2.329 3.878-.794.794-.803 1.122-.029 1.122.601 0 1.377-.74 1.724-1.645.919-2.393-2.359-5.599-5.174-5.061-1.551.296-2.644-.174-3.314-1.426-1.277-2.387-3.623-2.406-4.376-.036M6 58c0 .55.477 1 1.059 1s.781-.45.441-1-.816-1-1.059-1S6 57.45 6 58m149 3c0 .55.45 1 1 1s1-.45 1-1-.45-1-1-1-1 .45-1 1M6.901 67.554c1.871.812 3.621 1.257 3.889.989.559-.559-4.325-2.563-6.105-2.504-.652.022.346.704 2.216 1.515m85.178 3.029c.048 1.165.285 1.402.604.605.289-.722.253-1.585-.079-1.917-.332-.332-.568.258-.525 1.312m100 2c.048 1.165.285 1.402.604.605.289-.722.253-1.585-.079-1.917-.332-.332-.568.258-.525 1.312M194.054 74c-.045.825-.359 2.625-.699 4-.587 2.379-.53 2.417 1.186.793 1.465-1.388 1.596-2.137.698-4-.682-1.417-1.135-1.72-1.185-.793m-2.975 2.583c.048 1.165.285 1.402.604.605.289-.722.253-1.585-.079-1.917-.332-.332-.568.258-.525 1.312m-35.764.456c-4.064 1.578-5.839 8.451-2.828 10.95 3.429 2.846 10.069-2.178 9.34-7.067-.446-2.993-3.743-4.959-6.512-3.883M111.158 79c0 1.375.227 1.938.504 1.25.278-.687.278-1.812 0-2.5-.277-.687-.504-.125-.504 1.25m62 1c0 1.375.227 1.938.504 1.25.278-.687.278-1.812 0-2.5-.277-.687-.504-.125-.504 1.25m-7.813.543c-.326.849-.331 1.804-.012 2.124 1.009 1.009 3.667-.539 3.667-2.136 0-1.996-2.888-1.986-3.655.012m32.17-.567c-.332.536-3.504 2.598-7.05 4.581-3.546 1.983-6.739 4.078-7.096 4.655-1.171 1.895 21.945.467 25.017-1.545 3.077-2.016 3.136-2.462.713-5.365-2.348-2.813-7.099-4.163-7.099-2.017 0 1.676-2.659 3.044-4.139 2.129-.586-.362-.503-1.141.213-2.003.644-.776.917-1.411.607-1.411-.309 0-.834.439-1.166.976M77.002 88.691c.003 1.127 8.727 6.919 13.216 8.773 4.59 1.896 5.743 1.959 3.311.181-1.094-.8-1.605-2.004-1.248-2.936.334-.869.069-1.76-.587-1.98-.657-.22 1.281-.784 4.306-1.253 5.339-.828 5.176-.872-5.587-1.505-6.098-.358-11.61-.975-12.25-1.37-.64-.396-1.162-.355-1.161.09m73.617 3.463c-.874 4.371-.797 4.846.787 4.846.903 0 1.224-.699.896-1.954-.387-1.48.304-2.334 2.843-3.515 1.845-.858 2.535-1.33 1.533-1.049-1.003.281-2.637.075-3.631-.457-1.525-.816-1.905-.483-2.428 2.129M173 92.5c-1.375.786-2.05 1.429-1.5 1.429.55 0 2.125-.643 3.5-1.429s2.05-1.429 1.5-1.429c-.55 0-2.125.643-3.5 1.429M114 94c.825.533 1.95.969 2.5.969s.325-.436-.5-.969c-.825-.533-1.95-.969-2.5-.969s-.325.436.5.969m45.5 17.763c-3.024.684-4.5 2.237-4.5 4.737 0 3.156 1.937 4.432 8.3 5.467 9.408 1.532 12.563 5.005 8.995 9.903-1.054 1.447-3.914 3.624-6.355 4.839-5.174 2.574-4.588 3.038.842.669 2.045-.892 5.447-1.547 7.56-1.454 2.113.092 4.55-.415 5.414-1.128 1.376-1.135 1.438-1.048.5.704-1.412 2.633-5.034 5.876-8.756 7.838-1.65.87-2.55 1.593-2 1.606 2.292.054 9.103-4.716 11.22-7.857 4.293-6.37 2.595-16.625-3.455-20.869-4.381-3.074-13.621-5.391-17.765-4.455m-40.687.92c.721.289 1.584.253 1.916-.079.332-.332-.258-.568-1.312-.525-1.165.048-1.402.285-.604.604M26.333 123.5c0 .905.678 1.452 1.584 1.278 1.896-.366 1.758-2.158-.198-2.569-.762-.16-1.386.421-1.386 1.291m-3.52 2.183c.721.289 1.584.253 1.916-.079.332-.332-.258-.568-1.312-.525-1.165.048-1.402.285-.604.604m114 26c.721.289 1.584.253 1.916-.079.332-.332-.258-.568-1.312-.525-1.165.048-1.402.285-.604.604m.052 27.88c-3.191 1.672-4.197 3.948-2.854 6.458 1.053 1.967 4.842 4.979 6.264 4.979.923 0 .737-11.874-.195-12.45-.323-.2-1.77.256-3.215 1.013m.309 20.751c-2.691 2.865-2.69 3.127.015 5.647 3.232 3.012 3.811 2.562 3.811-2.961 0-5.587-.663-6.053-3.826-2.686m.756 14.27c-.929 1.12-1.017 2.054-.301 3.19 1.925 3.052 3.371 2.541 3.371-1.191 0-3.866-.987-4.509-3.07-1.999m6.206 11.131c.085 2.348.302 2.925.572 1.52.528-2.751 2.292-1.963 2.292 1.024 0 1.556.3 1.841 1.099 1.042 1.466-1.466.24-5.049-2.167-6.337-1.759-.942-1.92-.696-1.796 2.751m-5.936-.515c-1.875 1.875-1.423 4.242 1.3 6.8 1.938 1.82 2.5 1.996 2.5.781 0-.862-.675-1.826-1.5-2.143-1.65-.633-2.046-4.183-.568-5.096.513-.317 1.12.669 1.35 2.191.393 2.596.428 2.566.568-.483.157-3.403-1.414-4.286-3.65-2.05m7.3 8.995c1.1.624 2.331 1.623 2.735 2.22.506.747.739.707.75-.13.008-.668-.855-1.68-1.919-2.25-2.632-1.408-4.073-1.261-1.566.16m-8.041.872c-1.026 1.66-.105 1.89 1.33.332.71-.769.849-1.399.309-1.399-.539 0-1.277.48-1.639 1.067m.274 4.057c.679.684 1.486.991 1.793.683.308-.308-.247-.867-1.233-1.243-1.425-.542-1.54-.428-.56.56"/><path fill="#1976D2" fill-opacity=".983" fill-rule="evenodd" d="M6.557 13.223C4.471 16.201 4.594 17 7.14 17c2.563 0 4.168 1.899 7.015 8.301 1.468 3.301 2.584 4.629 3.572 4.25.79-.303 2.112-.551 2.938-.551.826 0 1.305-.562 1.065-1.25-.241-.687-1.127-1.129-1.971-.982-.955.167-1.79-.775-2.215-2.5-.375-1.522-1.952-4.118-3.503-5.768-1.551-1.65-3.125-4.012-3.498-5.25-.856-2.842-2.009-2.85-3.986-.027M16.595 33.75c-.406.413-2.169 1.29-3.917 1.95-3.178 1.2-3.178 1.2.946.642 4.409-.596 7.006 1.166 4.109 2.787-1.956 1.095-1.203 4.42 1.832 8.086 2.947 3.56 3.896 9.516 2.342 14.701-.88 2.937-3.351 6.197-8.606 11.352-4.054 3.978-7.798 7.38-8.32 7.56C3.75 81.254 3.71 155 4.941 155c3.379 0 7.805-5.613 6.699-8.496-.278-.724.365-2.103 1.427-3.065 1.94-1.756 2.703-6.439 1.05-6.439-.486 0-1.126-.925-1.421-2.055-.399-1.526.091-2.294 1.906-2.984 1.95-.741 2.322-1.416 1.84-3.335-.525-2.091.009-2.711 4.087-4.748 5.066-2.53 8.16-5.792 9.12-9.614.938-3.741-.934-4.831-4.992-2.906-1.902.903-3.792 1.642-4.198 1.642-1.2 0-3.393 3.358-3.427 5.25-.033 1.801-3.032 2.543-3.032.75 0-.55-1.238-1.014-2.75-1.03-2.429-.027-2.537-.155-.918-1.096 1.007-.585 2.647-.851 3.645-.59 1.747.457 2.987-1.096 4.384-5.49.485-1.524.201-1.498-2.659.246-1.761 1.074-4.734 1.954-6.607 1.956-3.361.004-3.381-.022-1.563-2.031 1.013-1.12 2.351-1.84 2.973-1.601.623.239 1.101-.473 1.064-1.584-.038-1.11.698-2.512 1.636-3.116 1.353-.871 2.215-.618 4.176 1.224 1.619 1.521 2.928 2.028 3.795 1.471.728-.468 2.632-.853 4.231-.855 1.599-.002 3.115-.614 3.368-1.359.341-.999-.16-1.179-1.907-.684-1.931.547-1.58-.09 1.905-3.453 2.351-2.268 4.064-4.463 3.807-4.878-.256-.415.405-2.077 1.47-3.692C36.223 89.141 36.467 88 35 88c-.55 0-1 .675-1 1.5s-.654 1.5-1.453 1.5c-1.219 0-1.182-.474.231-2.935 1.059-1.847 1.944-2.515 2.384-1.802.966 1.563 3.271-3.691 2.501-5.699C36.986 78.8 35 78.43 35 80.067c0 .597-.845.8-1.916.46-2.617-.831-3.636 1.206-1.682 3.365C33.491 86.2 33.419 87 31.122 87c-2.41 0-3.711-1.659-4.616-5.888-.682-3.187-.583-3.36 1.687-2.926 1.342.257 2.999-.166 3.732-.951 1.101-1.178.959-1.9-.848-4.345-1.193-1.613-1.838-3.467-1.435-4.12.947-1.532.504-26.605-.537-30.387l-.793-2.883-.749 3.313c-.669 2.957-.885 3.129-2.005 1.598-.69-.944-1.734-1.42-2.321-1.058-.586.363-2.041-.918-3.233-2.847-2.381-3.851-2.353-3.829-3.409-2.756m125.155-.088c.688.278 1.813.278 2.5 0 .688-.277.125-.504-1.25-.504s-1.937.227-1.25.504m7.129 2.048c9.867 4.861 9.296 19.602-.918 23.689-5.15 2.061-6.724 2.016-11.307-.32-2.34-1.194-3.337-1.402-2.631-.551 1.775 2.139 7.768 3.734 11.441 3.045 11.968-2.246 15.599-17.872 5.921-25.485-1.46-1.148-3.382-2.078-4.27-2.065-.888.012-.095.772 1.764 1.687m-134.8 5.967c-.043.647-.866 1.332-1.829 1.523-1.021.202-1.313.622-.702 1.007 1.515.956 3.791-.735 3.153-2.341-.331-.833-.574-.906-.622-.189m124.966 38.66c.071 9.802-.105 18.056-.391 18.343-.287.286-1.094.166-1.795-.267-.701-.433-2.224-.889-3.385-1.013-4.248-.453-19.474-5.55-19.474-6.52 0-.549-.431-.731-.959-.406-.527.326-4.127-1.003-8-2.953-3.872-1.95-7.041-3.287-7.041-2.97 0 .857 18.029 9.237 26.586 12.356 4.101 1.495 7.109 3.094 6.685 3.553-.424.46.29.573 1.586.253 1.297-.32 3.434-.173 4.75.328l2.393.909v40.787l-5.25-1.222c-10.519-2.45-16.497-4.527-19.342-6.72-1.82-1.403-2.395-1.597-1.536-.518 1.259 1.58.992 1.723-3.2 1.723-3.3 0-4.856-.487-5.592-1.75-.561-.963-1.033-1.222-1.05-.577-.047 1.833 4.894 7.236 8.163 8.927 1.625.84 6.116 2.331 9.98 3.312 7.011 1.78 7.037 1.779 12.676-.512l5.651-2.297.262-39.24c.177-26.506-.08-39.581-.793-40.294-.738-.738-1.015 4.277-.924 16.768m6.622-16.67c-.367.366-.564 18.254-.438 39.75.126 21.682.358 29.845.52 18.333.321-22.831-.12-21.346 6.236-20.979.817.047 1.717-.231 2-.617.283-.386 4.79-2.394 10.015-4.462 8.24-3.262 18.313-8.191 12.5-6.117-1.1.393-2.787.745-3.75.784-.963.038-1.75.409-1.75.823 0 .612-7.908 3.266-19.25 6.46-1.353.381-1.777-.147-1.868-2.325l-.119-2.817-.641 3c-.353 1.65-1.087 2.885-1.632 2.744-.623-.162-.856-6.733-.628-17.75.199-9.622.162-17.494-.083-17.494s-.746.3-1.112.667M93 80.441c0 .793.408 1.693.907 2.001.498.309.671-.34.383-1.441-.611-2.335-1.29-2.63-1.29-.56m97.564 1.266c-.542 1.425-.428 1.54.56.56.684-.679.991-1.486.683-1.793-.308-.308-.867.247-1.243 1.233m-56.485.876c.048 1.165.285 1.402.604.605.289-.722.253-1.585-.079-1.917-.332-.332-.568.258-.525 1.312m1.207 8.917c.008 2.75.202 3.756.432 2.236.229-1.52.223-3.77-.014-5-.237-1.23-.425.014-.418 2.764M180 88c-.901.582-1.025.975-.309.985.655.008 1.469-.435 1.809-.985.767-1.242.421-1.242-1.5 0m-26.25 1.662c.688.278 1.813.278 2.5 0 .688-.277.125-.504-1.25-.504s-1.937.227-1.25.504M27 95.059c0 .582.45.781 1 .441s1-.816 1-1.059S28.55 94 28 94s-1 .477-1 1.059m-8.755 2.096c-2.205 2.205-1.342 2.967 3.005 2.652 2.974-.215 4.25-.757 4.25-1.807 0-1.913-5.542-2.558-7.255-.845M123 102c-3.392.714-3.407.738-.5.769 1.65.017 4.125-.329 5.5-.769 3.279-1.05-.011-1.05-5 0m34-.049c2.498.849 8.704 1.38 7.917.677-.229-.204-2.667-.632-5.417-.949-3.372-.39-4.186-.301-2.5.272m-125 .868c0 1.583 2.706 4.465 3.296 3.511.331-.535-.275-1.724-1.347-2.642-1.072-.918-1.949-1.309-1.949-.869m71.813-.136c.721.289 1.584.253 1.916-.079.332-.332-.258-.568-1.312-.525-1.165.048-1.402.285-.604.604m75.456.01c.973.254 2.323.237 3-.037.677-.274-.119-.481-1.769-.461-1.65.02-2.204.244-1.231.498m-67.519 1.013c1.237.238 3.263.238 4.5 0 1.237-.239.225-.434-2.25-.434s-3.487.195-2.25.434m57 0c1.238.238 3.262.238 4.5 0 1.238-.239.225-.434-2.25-.434s-3.488.195-2.25.434M156 114c-.743 1.387-.754 2.592-.036 3.932 1.119 2.092 2.301 2.575 8.757 3.578 2.321.361 5.471 1.609 7 2.773l2.779 2.117-1.958-2.259-1.959-2.259 5.235.239c5.601.256 5.499.141 6.583 7.379.247 1.65.322.612.165-2.307-.239-4.469-.814-5.854-3.647-8.777-5.723-5.904-20.589-8.769-22.919-4.416m-131 1c0 .55.477 1 1.059 1s.781-.45.441-1-.816-1-1.059-1-.441.45-.441 1m-12 12.5c0 .825.375 1.5.833 1.5.459 0 .834-.675.834-1.5s-.375-1.5-.834-1.5c-.458 0-.833.675-.833 1.5m-7 14.345c0 .465.835 1.601 1.857 2.525 1.542 1.396 2.046 1.452 2.976.331.829-.999.814-1.654-.057-2.525-1.352-1.352-4.776-1.59-4.776-.331m144 7.424-5.5 1.032 3.38.912c1.86.501 4.472 1.627 5.805 2.5 2.555 1.674 9.317 2.371 9.316.96-.001-1.145-5.658-6.7-6.674-6.554-.455.065-3.302.583-6.327 1.15M5 157c0 .55.423 1 .941 1s1.219-.45 1.559-1c.34-.55-.084-1-.941-1S5 156.45 5 157m117.079.583c.048 1.165.285 1.402.604.605.289-.722.253-1.585-.079-1.917-.332-.332-.568.258-.525 1.312m.021 5.09c-.132 2.863 4.242 7.96 8.776 10.228 3.285 1.643 3.951 1.675 7.124.345l3.5-1.468-5-2.393c-2.75-1.316-5.862-3.404-6.916-4.639-1.476-1.73-1.765-1.829-1.256-.43.548 1.508.202 1.762-2.045 1.5-1.894-.221-2.91-1.065-3.394-2.816-.626-2.269-.699-2.299-.789-.327M4 164.5c0 .825.45 1.5 1 1.5s1-.675 1-1.5-.45-1.5-1-1.5-1 .675-1 1.5m.079 8.95c-.058 2.9.217 3.654 1.033 2.838.79-.79.813-1.937.079-3.95-1.022-2.806-1.034-2.794-1.112 1.112m142.671 2.239c-2.557.668-2.121 1.618 1.517 3.311 1.773.825 3.738 2.553 4.365 3.839.79 1.62 1.307 1.928 1.679 1 .433-1.08.742-1.049 1.598.161.86 1.217 1.063 1.006 1.076-1.114.009-1.506-1.102-3.73-2.621-5.25-2.554-2.554-3.938-2.907-7.614-1.947m-17.614 8.374c-.103 2.704.527 4.181 2.614 6.128 3.896 3.633 6.579 4.846 8.304 3.753 1.175-.745.883-1.381-1.554-3.394-1.65-1.363-3.3-2.494-3.667-2.514-.366-.02-1.118-1.274-1.671-2.786-.552-1.512-1.04-2.187-1.083-1.5-.134 2.127-1.916 1.376-2.373-1-.284-1.474-.481-1.021-.57 1.313m16.395 11.887c-.687 1.112 3.1 3.449 5.922 3.654 1.673.122 1.557-.199-.806-2.231-2.983-2.566-4.2-2.905-5.116-1.423m-11.041 5.066c-.346.559-1.047.758-1.559.441-1.249-.771-1.185 2.2.099 4.598 1.38 2.579 6.638 5.29 7.513 3.875.362-.585.5-1.169.307-1.299-.192-.13-1.632-1.04-3.2-2.022-2.173-1.362-2.74-2.358-2.388-4.197.493-2.579.241-3.035-.772-1.396M145 211.253c0 .14 1.35 1.528 3 3.085 3.297 3.112 4.217 1.879 1-1.338-1.669-1.669-4-2.687-4-1.747m-10 5.709c0 1.737 4.689 5.683 5.632 4.74.252-.252-.912-1.829-2.587-3.503-2.481-2.481-3.045-2.71-3.045-1.237m9.083 6.321c.23.156 1.317.943 2.417 1.75 1.85 1.357 1.897 1.336.628-.283-.755-.963-1.843-1.75-2.417-1.75-.574 0-.857.127-.628.283M138 229.819c0 1.208 1.897 2.617 2.591 1.924.251-.252-.229-1.027-1.067-1.723-.95-.789-1.524-.865-1.524-.201"/></svg>